<?xml version="1.0" encoding="UTF-8"?><svg xmlns="http://www.w3.org/2000/svg" xmlns:xlink="http://www.w3.org/1999/xlink" contentScriptType="application/ecmascript" contentStyleType="text/css" height="547px" preserveAspectRatio="none" style="width:345px;height:547px;" version="1.1" viewBox="0 0 345 547" width="345px" zoomAndPan="magnify">
    <defs>
        <filter height="300%" id="fan5ee9hf7qj3" width="300%" x="-1" y="-1">
            <feGaussianBlur result="blurOut" stdDeviation="2.0"/>
            <feColorMatrix in="blurOut" result="blurOut2" type="matrix" values="0 0 0 0 0 0 0 0 0 0 0 0 0 0 0 0 0 0 .4 0"/>
            <feOffset dx="4.0" dy="4.0" in="blurOut2" result="blurOut3"/>
            <feBlend in="SourceGraphic" in2="blurOut3" mode="normal"/>
        </filter>
    </defs>
    <g>
        <!--MD5=[9dd4eaa2771a2ff8dbee15cc1e732cab]
class Patient-->
        <rect codeLine="2" fill="#FEFECE" filter="url(#fan5ee9hf7qj3)" height="131.0156" id="Patient" style="stroke:#A80036;stroke-width:1.5;" width="106" x="7" y="389"/>
        <ellipse cx="38.2" cy="405" fill="#ADD1B2" rx="11" ry="11" style="stroke:#A80036;stroke-width:1.0;"/>
        <path d="M40.9656,400.875 Q41.1219,400.6563 41.3094,400.5469 Q41.4969,400.4375 41.7156,400.4375 Q42.0906,400.4375 42.325,400.7031 Q42.5594,400.9531 42.5594,401.5625 L42.5594,403.0156 Q42.5594,403.625 42.325,403.8906 Q42.0906,404.1563 41.7156,404.1563 Q41.3719,404.1563 41.1688,403.9531 Q40.9656,403.7656 40.8563,403.25 Q40.8094,402.8906 40.6219,402.7031 Q40.2938,402.3281 39.6844,402.1094 Q39.075,401.8906 38.45,401.8906 Q37.6844,401.8906 37.0438,402.2188 Q36.4188,402.5469 35.9188,403.2969 Q35.4344,404.0469 35.4344,405.0781 L35.4344,406.1719 Q35.4344,407.4063 36.325,408.2344 Q37.2156,409.0469 38.8094,409.0469 Q39.7469,409.0469 40.4031,408.7969 Q40.7938,408.6406 41.2156,408.2031 Q41.4813,407.9375 41.6219,407.8594 Q41.7781,407.7813 41.9813,407.7813 Q42.3094,407.7813 42.5594,408.0469 Q42.825,408.2969 42.825,408.6406 Q42.825,408.9844 42.4813,409.3906 Q41.9813,409.9688 41.1844,410.2969 Q40.1063,410.75 38.8094,410.75 Q37.2938,410.75 36.0906,410.125 Q35.1063,409.625 34.4188,408.5625 Q33.7313,407.4844 33.7313,406.2031 L33.7313,405.0469 Q33.7313,403.7188 34.3406,402.5781 Q34.9656,401.4219 36.0594,400.8125 Q37.1531,400.1875 38.3875,400.1875 Q39.1219,400.1875 39.7625,400.3594 Q40.4188,400.5156 40.9656,400.875 Z " fill="#000000"/>
        <text fill="#000000" font-family="sans-serif" font-size="12" lengthAdjust="spacing" textLength="38" x="55.8" y="409.9102">Patient</text>
        <line style="stroke:#A80036;stroke-width:1.5;" x1="8" x2="112" y1="421" y2="421"/>
        <rect fill="none" height="6" style="stroke:#C82930;stroke-width:1.0;" width="6" x="15" y="429"/>
        <text fill="#000000" font-family="sans-serif" font-size="11" lengthAdjust="spacing" textLength="34" x="27" y="436.4189">pid : int</text>
        <rect fill="none" height="6" style="stroke:#C82930;stroke-width:1.0;" width="6" x="15" y="442.8359"/>
        <text fill="#000000" font-family="sans-serif" font-size="11" lengthAdjust="spacing" textLength="38" x="27" y="450.2549">age : int</text>
        <rect fill="none" height="6" style="stroke:#C82930;stroke-width:1.0;" width="6" x="15" y="456.6719"/>
        <text fill="#000000" font-family="sans-serif" font-size="11" lengthAdjust="spacing" textLength="54" x="27" y="464.0908">gender : int</text>
        <rect fill="none" height="6" style="stroke:#C82930;stroke-width:1.0;" width="6" x="15" y="470.5078"/>
        <text fill="#000000" font-family="sans-serif" font-size="11" lengthAdjust="spacing" textLength="70" x="27" y="477.9268">height : double</text>
        <rect fill="none" height="6" style="stroke:#C82930;stroke-width:1.0;" width="6" x="15" y="484.3438"/>
        <text fill="#000000" font-family="sans-serif" font-size="11" lengthAdjust="spacing" textLength="74" x="27" y="491.7627">weight : double</text>
        <line style="stroke:#A80036;stroke-width:1.5;" x1="8" x2="112" y1="498.1797" y2="498.1797"/>
        <ellipse cx="18" cy="509.1797" fill="#84BE84" rx="3" ry="3" style="stroke:#038048;stroke-width:1.0;"/>
        <text fill="#000000" font-family="sans-serif" font-size="11" lengthAdjust="spacing" textLength="80" x="27" y="513.5986">getPMI() : double</text>
        <!--MD5=[865d42115dde3ba564e46ca38a200d58]
class LabMapping-->
        <rect codeLine="11" fill="#FEFECE" filter="url(#fan5ee9hf7qj3)" height="158.6875" id="LabMapping" style="stroke:#A80036;stroke-width:1.5;" width="183" x="148.5" y="375"/>
        <ellipse cx="201.25" cy="391" fill="#B4A7E5" rx="11" ry="11" style="stroke:#A80036;stroke-width:1.0;"/>
        <path d="M202.2031,387.6406 L202.2031,394.2969 L203.9219,394.2969 Q204.5313,394.2969 204.7969,394.5313 Q205.0625,394.7656 205.0625,395.1563 Q205.0625,395.5313 204.7969,395.7656 Q204.5313,396 203.9219,396 L198.7813,396 Q198.1719,396 197.9063,395.7656 Q197.6406,395.5313 197.6406,395.1406 Q197.6406,394.7656 197.9063,394.5313 Q198.1719,394.2969 198.7813,394.2969 L200.5,394.2969 L200.5,387.6406 L198.7813,387.6406 Q198.1719,387.6406 197.9063,387.4063 Q197.6406,387.1719 197.6406,386.7813 Q197.6406,386.4063 197.9063,386.1719 Q198.1719,385.9375 198.7813,385.9375 L203.9219,385.9375 Q204.5313,385.9375 204.7969,386.1719 Q205.0625,386.4063 205.0625,386.7813 Q205.0625,387.1719 204.7969,387.4063 Q204.5313,387.6406 203.9219,387.6406 L202.2031,387.6406 Z " fill="#000000"/>
        <text fill="#000000" font-family="sans-serif" font-size="12" font-style="italic" lengthAdjust="spacing" textLength="69" x="221.75" y="395.9102">LabMapping</text>
        <line style="stroke:#A80036;stroke-width:1.5;" x1="149.5" x2="330.5" y1="407" y2="407"/>
        <line style="stroke:#A80036;stroke-width:1.5;" x1="149.5" x2="330.5" y1="415" y2="415"/>
        <ellipse cx="159.5" cy="426" fill="#84BE84" rx="3" ry="3" style="stroke:#038048;stroke-width:1.0;"/>
        <text fill="#000000" font-family="sans-serif" font-size="11" lengthAdjust="spacing" textLength="86" x="168.5" y="430.4189">mapBMI() : double</text>
        <ellipse cx="159.5" cy="439.8359" fill="#84BE84" rx="3" ry="3" style="stroke:#038048;stroke-width:1.0;"/>
        <text fill="#000000" font-family="sans-serif" font-size="11" lengthAdjust="spacing" textLength="131" x="168.5" y="444.2549">mapBP(sbp:int, dbp:int) : int</text>
        <ellipse cx="159.5" cy="453.6719" fill="#84BE84" rx="3" ry="3" style="stroke:#038048;stroke-width:1.0;"/>
        <text fill="#000000" font-family="sans-serif" font-size="11" lengthAdjust="spacing" textLength="119" x="168.5" y="458.0908">mapFBS(fbs:double) : int</text>
        <ellipse cx="159.5" cy="467.5078" fill="#84BE84" rx="3" ry="3" style="stroke:#038048;stroke-width:1.0;"/>
        <text fill="#000000" font-family="sans-serif" font-size="11" lengthAdjust="spacing" textLength="157" x="168.5" y="471.9268">mapCholesterol(chol:double) : int</text>
        <ellipse cx="159.5" cy="481.3438" fill="#84BE84" rx="3" ry="3" style="stroke:#038048;stroke-width:1.0;"/>
        <text fill="#000000" font-family="sans-serif" font-size="11" lengthAdjust="spacing" textLength="117" x="168.5" y="485.7627">mapHDL(hdl:double) : int</text>
        <ellipse cx="159.5" cy="495.1797" fill="#84BE84" rx="3" ry="3" style="stroke:#038048;stroke-width:1.0;"/>
        <text fill="#000000" font-family="sans-serif" font-size="11" lengthAdjust="spacing" textLength="112" x="168.5" y="499.5986">mapLDL(ldl:double) : int</text>
        <ellipse cx="159.5" cy="509.0156" fill="#84BE84" rx="3" ry="3" style="stroke:#038048;stroke-width:1.0;"/>
        <text fill="#000000" font-family="sans-serif" font-size="11" lengthAdjust="spacing" textLength="106" x="168.5" y="513.4346">mapTG(tg:double) : int</text>
        <ellipse cx="159.5" cy="522.8516" fill="#84BE84" rx="3" ry="3" style="stroke:#038048;stroke-width:1.0;"/>
        <text fill="#000000" font-family="sans-serif" font-size="11" lengthAdjust="spacing" textLength="122" x="168.5" y="527.2705">mapA1C(a1c:double) : int</text>
        <!--MD5=[0caf3a413731a0de34fc6162fe213ed9]
class Laboratory-->
        <rect codeLine="22" fill="#FEFECE" filter="url(#fan5ee9hf7qj3)" height="144.8516" id="Laboratory" style="stroke:#A80036;stroke-width:1.5;" width="90" x="105" y="170"/>
        <ellipse cx="120" cy="186" fill="#ADD1B2" rx="11" ry="11" style="stroke:#A80036;stroke-width:1.0;"/>
        <path d="M122.7656,181.875 Q122.9219,181.6563 123.1094,181.5469 Q123.2969,181.4375 123.5156,181.4375 Q123.8906,181.4375 124.125,181.7031 Q124.3594,181.9531 124.3594,182.5625 L124.3594,184.0156 Q124.3594,184.625 124.125,184.8906 Q123.8906,185.1563 123.5156,185.1563 Q123.1719,185.1563 122.9688,184.9531 Q122.7656,184.7656 122.6563,184.25 Q122.6094,183.8906 122.4219,183.7031 Q122.0938,183.3281 121.4844,183.1094 Q120.875,182.8906 120.25,182.8906 Q119.4844,182.8906 118.8438,183.2188 Q118.2188,183.5469 117.7188,184.2969 Q117.2344,185.0469 117.2344,186.0781 L117.2344,187.1719 Q117.2344,188.4063 118.125,189.2344 Q119.0156,190.0469 120.6094,190.0469 Q121.5469,190.0469 122.2031,189.7969 Q122.5938,189.6406 123.0156,189.2031 Q123.2813,188.9375 123.4219,188.8594 Q123.5781,188.7813 123.7813,188.7813 Q124.1094,188.7813 124.3594,189.0469 Q124.625,189.2969 124.625,189.6406 Q124.625,189.9844 124.2813,190.3906 Q123.7813,190.9688 122.9844,191.2969 Q121.9063,191.75 120.6094,191.75 Q119.0938,191.75 117.8906,191.125 Q116.9063,190.625 116.2188,189.5625 Q115.5313,188.4844 115.5313,187.2031 L115.5313,186.0469 Q115.5313,184.7188 116.1406,183.5781 Q116.7656,182.4219 117.8594,181.8125 Q118.9531,181.1875 120.1875,181.1875 Q120.9219,181.1875 121.5625,181.3594 Q122.2188,181.5156 122.7656,181.875 Z " fill="#000000"/>
        <text fill="#000000" font-family="sans-serif" font-size="12" lengthAdjust="spacing" textLength="58" x="134" y="190.9102">Laboratory</text>
        <line style="stroke:#A80036;stroke-width:1.5;" x1="106" x2="194" y1="202" y2="202"/>
        <rect fill="none" height="6" style="stroke:#C82930;stroke-width:1.0;" width="6" x="113" y="210"/>
        <text fill="#000000" font-family="sans-serif" font-size="11" lengthAdjust="spacing" textLength="38" x="125" y="217.4189">dbp : int</text>
        <rect fill="none" height="6" style="stroke:#C82930;stroke-width:1.0;" width="6" x="113" y="223.8359"/>
        <text fill="#000000" font-family="sans-serif" font-size="11" lengthAdjust="spacing" textLength="57" x="125" y="231.2549">fbs : double</text>
        <rect fill="none" height="6" style="stroke:#C82930;stroke-width:1.0;" width="6" x="113" y="237.6719"/>
        <text fill="#000000" font-family="sans-serif" font-size="11" lengthAdjust="spacing" textLength="61" x="125" y="245.0908">chol : double</text>
        <rect fill="none" height="6" style="stroke:#C82930;stroke-width:1.0;" width="6" x="113" y="251.5078"/>
        <text fill="#000000" font-family="sans-serif" font-size="11" lengthAdjust="spacing" textLength="55" x="125" y="258.9268">hdl : double</text>
        <rect fill="none" height="6" style="stroke:#C82930;stroke-width:1.0;" width="6" x="113" y="265.3438"/>
        <text fill="#000000" font-family="sans-serif" font-size="11" lengthAdjust="spacing" textLength="51" x="125" y="272.7627">ldl : double</text>
        <rect fill="none" height="6" style="stroke:#C82930;stroke-width:1.0;" width="6" x="113" y="279.1797"/>
        <text fill="#000000" font-family="sans-serif" font-size="11" lengthAdjust="spacing" textLength="50" x="125" y="286.5986">tg : double</text>
        <rect fill="none" height="6" style="stroke:#C82930;stroke-width:1.0;" width="6" x="113" y="293.0156"/>
        <text fill="#000000" font-family="sans-serif" font-size="11" lengthAdjust="spacing" textLength="59" x="125" y="300.4346">a1c : double</text>
        <line style="stroke:#A80036;stroke-width:1.5;" x1="106" x2="194" y1="306.8516" y2="306.8516"/>
        <!--MD5=[f8895c6a6f3f6ebf07bceb83beb03cc6]
class MedicalDiagnose-->
        <rect codeLine="32" fill="#FEFECE" filter="url(#fan5ee9hf7qj3)" height="103.3438" id="MedicalDiagnose" style="stroke:#A80036;stroke-width:1.5;" width="169" x="130.5" y="7"/>
        <ellipse cx="163.95" cy="23" fill="#ADD1B2" rx="11" ry="11" style="stroke:#A80036;stroke-width:1.0;"/>
        <path d="M166.7156,18.875 Q166.8719,18.6563 167.0594,18.5469 Q167.2469,18.4375 167.4656,18.4375 Q167.8406,18.4375 168.075,18.7031 Q168.3094,18.9531 168.3094,19.5625 L168.3094,21.0156 Q168.3094,21.625 168.075,21.8906 Q167.8406,22.1563 167.4656,22.1563 Q167.1219,22.1563 166.9188,21.9531 Q166.7156,21.7656 166.6063,21.25 Q166.5594,20.8906 166.3719,20.7031 Q166.0438,20.3281 165.4344,20.1094 Q164.825,19.8906 164.2,19.8906 Q163.4344,19.8906 162.7938,20.2188 Q162.1688,20.5469 161.6688,21.2969 Q161.1844,22.0469 161.1844,23.0781 L161.1844,24.1719 Q161.1844,25.4063 162.075,26.2344 Q162.9656,27.0469 164.5594,27.0469 Q165.4969,27.0469 166.1531,26.7969 Q166.5438,26.6406 166.9656,26.2031 Q167.2313,25.9375 167.3719,25.8594 Q167.5281,25.7813 167.7313,25.7813 Q168.0594,25.7813 168.3094,26.0469 Q168.575,26.2969 168.575,26.6406 Q168.575,26.9844 168.2313,27.3906 Q167.7313,27.9688 166.9344,28.2969 Q165.8563,28.75 164.5594,28.75 Q163.0438,28.75 161.8406,28.125 Q160.8563,27.625 160.1688,26.5625 Q159.4813,25.4844 159.4813,24.2031 L159.4813,23.0469 Q159.4813,21.7188 160.0906,20.5781 Q160.7156,19.4219 161.8094,18.8125 Q162.9031,18.1875 164.1375,18.1875 Q164.8719,18.1875 165.5125,18.3594 Q166.1688,18.5156 166.7156,18.875 Z " fill="#000000"/>
        <text fill="#000000" font-family="sans-serif" font-size="12" lengthAdjust="spacing" textLength="96" x="182.05" y="27.9102">MedicalDiagnose</text>
        <line style="stroke:#A80036;stroke-width:1.5;" x1="131.5" x2="298.5" y1="39" y2="39"/>
        <line style="stroke:#A80036;stroke-width:1.5;" x1="131.5" x2="298.5" y1="47" y2="47"/>
        <ellipse cx="141.5" cy="58" fill="#84BE84" rx="3" ry="3" style="stroke:#038048;stroke-width:1.0;"/>
        <text fill="#000000" font-family="sans-serif" font-size="11" lengthAdjust="spacing" textLength="143" x="150.5" y="62.4189">mapGender(gender:int) : char</text>
        <ellipse cx="141.5" cy="71.8359" fill="#84BE84" rx="3" ry="3" style="stroke:#038048;stroke-width:1.0;"/>
        <text fill="#000000" font-family="sans-serif" font-size="11" lengthAdjust="spacing" textLength="66" x="150.5" y="76.2549">getTotal() : int</text>
        <ellipse cx="141.5" cy="85.6719" fill="#84BE84" rx="3" ry="3" style="stroke:#038048;stroke-width:1.0;"/>
        <text fill="#000000" font-family="sans-serif" font-size="11" lengthAdjust="spacing" textLength="111" x="150.5" y="90.0908">classifyDiagnose() : int</text>
        <ellipse cx="141.5" cy="99.5078" fill="#84BE84" rx="3" ry="3" style="stroke:#038048;stroke-width:1.0;"/>
        <text fill="#000000" font-family="sans-serif" font-size="11" lengthAdjust="spacing" textLength="104" x="150.5" y="103.9268">getCondition() : String</text>
        <!--MD5=[7a4729d26b999f6a4650b01106c103c5]
class Comparable-->
        <rect fill="#FEFECE" filter="url(#fan5ee9hf7qj3)" height="48" id="Comparable" style="stroke:#A80036;stroke-width:1.5;" width="101" x="230.5" y="218.5"/>
        <ellipse cx="245.5" cy="234.5" fill="#ADD1B2" rx="11" ry="11" style="stroke:#A80036;stroke-width:1.0;"/>
        <path d="M248.2656,230.375 Q248.4219,230.1563 248.6094,230.0469 Q248.7969,229.9375 249.0156,229.9375 Q249.3906,229.9375 249.625,230.2031 Q249.8594,230.4531 249.8594,231.0625 L249.8594,232.5156 Q249.8594,233.125 249.625,233.3906 Q249.3906,233.6563 249.0156,233.6563 Q248.6719,233.6563 248.4688,233.4531 Q248.2656,233.2656 248.1563,232.75 Q248.1094,232.3906 247.9219,232.2031 Q247.5938,231.8281 246.9844,231.6094 Q246.375,231.3906 245.75,231.3906 Q244.9844,231.3906 244.3438,231.7188 Q243.7188,232.0469 243.2188,232.7969 Q242.7344,233.5469 242.7344,234.5781 L242.7344,235.6719 Q242.7344,236.9063 243.625,237.7344 Q244.5156,238.5469 246.1094,238.5469 Q247.0469,238.5469 247.7031,238.2969 Q248.0938,238.1406 248.5156,237.7031 Q248.7813,237.4375 248.9219,237.3594 Q249.0781,237.2813 249.2813,237.2813 Q249.6094,237.2813 249.8594,237.5469 Q250.125,237.7969 250.125,238.1406 Q250.125,238.4844 249.7813,238.8906 Q249.2813,239.4688 248.4844,239.7969 Q247.4063,240.25 246.1094,240.25 Q244.5938,240.25 243.3906,239.625 Q242.4063,239.125 241.7188,238.0625 Q241.0313,236.9844 241.0313,235.7031 L241.0313,234.5469 Q241.0313,233.2188 241.6406,232.0781 Q242.2656,230.9219 243.3594,230.3125 Q244.4531,229.6875 245.6875,229.6875 Q246.4219,229.6875 247.0625,229.8594 Q247.7188,230.0156 248.2656,230.375 Z " fill="#000000"/>
        <text fill="#000000" font-family="sans-serif" font-size="12" lengthAdjust="spacing" textLength="69" x="259.5" y="239.4102">Comparable</text>
        <line style="stroke:#A80036;stroke-width:1.5;" x1="231.5" x2="330.5" y1="250.5" y2="250.5"/>
        <line style="stroke:#A80036;stroke-width:1.5;" x1="231.5" x2="330.5" y1="258.5" y2="258.5"/>
        <!--MD5=[4bb1ef5bb572ff93514a5b419f984535]
link Laboratory to LabMapping-->
        <path codeLine="39" d="M180.72,315.18 C186.39,328.42 192.4,342.44 198.33,356.28 " fill="none" id="Laboratory-to-LabMapping" style="stroke:#A80036;stroke-width:1.0;stroke-dasharray:7.0,7.0;"/>
        <polygon fill="none" points="204.89,353.81,206.33,374.95,192.02,359.32,204.89,353.81" style="stroke:#A80036;stroke-width:1.0;"/>
        <!--MD5=[144e45894fbbed414141f9c1ae54548b]
link MedicalDiagnose to Comparable-->
        <path codeLine="40" d="M233.38,110.2 C243.55,138.22 256.03,172.64 265.66,199.2 " fill="none" id="MedicalDiagnose-to-Comparable" style="stroke:#A80036;stroke-width:1.0;stroke-dasharray:7.0,7.0;"/>
        <polygon fill="none" points="272.29,196.96,272.53,218.15,259.13,201.73,272.29,196.96" style="stroke:#A80036;stroke-width:1.0;"/>
        <!--MD5=[441d2798eef5d34fb0b731872b4f78d0]
link Laboratory to Patient-->
        <path codeLine="41" d="M119.28,315.18 C109.72,337.48 99.21,362.01 89.72,384.15 " fill="none" id="Laboratory-to-Patient" style="stroke:#A80036;stroke-width:1.0;"/>
        <polygon fill="#A80036" points="87.71,388.83,94.9394,382.1415,89.6848,384.2365,87.5898,378.9819,87.71,388.83" style="stroke:#A80036;stroke-width:1.0;"/>
        <!--MD5=[db47174fd0c05ba899158bfd09b76517]
link MedicalDiagnose to Laboratory-->
        <path codeLine="42" d="M196.89,110.2 C190.85,127.12 183.98,146.37 177.39,164.81 " fill="none" id="MedicalDiagnose-to-Laboratory" style="stroke:#A80036;stroke-width:1.0;"/>
        <polygon fill="#A80036" points="175.54,169.99,182.3175,162.844,177.2108,165.2774,174.7774,160.1707,175.54,169.99" style="stroke:#A80036;stroke-width:1.0;"/>
        <!--MD5=[35e7c06e05f519d3964c530704922e5d]
@startuml

class Patient {
    -pid : int
    -age : int
    -gender : int
    -height : double
    -weight : double
    +getPMI() : double
}

interface LabMapping {
    +mapBMI() : double
    +mapBP(sbp:int, dbp:int) : int
    +mapFBS(fbs:double) : int
    +mapCholesterol(chol:double) : int
    +mapHDL(hdl:double) : int
    +mapLDL(ldl:double) : int
    +mapTG(tg:double) : int
    +mapA1C(a1c:double) : int
}

class Laboratory {
    -dbp : int
    -fbs : double
    -chol : double
    -hdl : double
    -ldl : double
    -tg : double
    -a1c : double
}

class MedicalDiagnose {
    +mapGender(gender:int) : char
    +getTotal() : int
    +classifyDiagnose() : int
    +getCondition() : String
}

Laboratory ..|> LabMapping
MedicalDiagnose ..|> Comparable
Laboratory - -> Patient
MedicalDiagnose - -> Laboratory

@enduml

PlantUML version 1.2021.3(Mon Mar 22 12:53:19 BOT 2021)
(GPL source distribution)
Java Runtime: Java(TM) SE Runtime Environment
JVM: Java HotSpot(TM) 64-Bit Server VM
Default Encoding: Cp1252
Language: en
Country: US
-->
    </g>
</svg>
